# AST/ASF file generated using VICON BodyLanguage
# -----------------------------------------------
:version 1.10
:name VICON
:units
  mass 1.0
  length 0.45
  angle deg
:documentation
   .ast/.asf automatically generated from VICON data using
   VICON BodyBuilder and BodyLanguage model FoxedUp or BRILLIANT.MOD
:root
   order TX TY TZ RX RY RZ
   axis XYZ
   position 0 0 0  
   orientation 0 0 0 
:bonedata
  begin
     id 1 
     name lhipjoint
     direction 0.577973 -0.728611 0.367523 
     length 2.48544 
     axis 0 0 0  XYZ
  end
  begin
     id 2 
     name lfemur
     direction 0.34202 -0.939693 0  
     length 7.1921  
     axis 0 0 20  XYZ
    dof rx ry rz
    limits (-160.0 20.0)
           (-70.0 70.0)
           (-60.0 70.0)
  end
  begin
     id 3 
     name ltibia
     direction 0.34202 -0.939693 0   
     length 7.71059   
     axis 0 0 20   XYZ
    dof rx
    limits (-10.0 170.0)
  end
  begin
     id 4 
     name lfoot
     direction 0.089538 -0.246004 0.965124   
     length 2.19909   
     axis -90 7.62852e-016 20   XYZ
    dof rx rz
    limits (-45.0 90.0)
           (-70.0 20.0)
  end
  begin
     id 5 
     name ltoes
     direction 1.53544e-011 -4.21829e-011 1   
     length 1.10116   
     axis -90 7.62852e-016 20   XYZ
    dof rx
    limits (-90.0 20.0)
  end
  begin
     id 6 
     name rhipjoint
     direction -0.554414 -0.743062 0.374812   
     length 2.4371  
     axis 0 0 0  XYZ 
  end
  begin
     id 7 
     name rfemur
     direction -0.34202 -0.939693 0   
     length 7.47254   
     axis 0 0 -20   XYZ
    dof rx ry rz
    limits (-160.0 20.0)
           (-70.0 70.0)
           (-70.0 60.0)
  end
  begin
     id 8 
     name rtibia
     direction -0.34202 -0.939693 0   
     length 7.65855   
     axis 0 0 -20   XYZ
    dof rx
    limits (-10.0 170.0)
 end
 begin
     id 9 
     name rfoot
     direction -0.133779 -0.367555 0.92033   
     length 2.43006  
     axis -90 -7.62852e-016 -20   XYZ
    dof rx rz
    limits (-45.0 90.0)
           (-20.0 70.0)
  end
  begin
     id 10 
     name rtoes
     direction -1.53563e-011 -4.21889e-011 1   
     length 1.19625   
     axis -90 -7.62852e-016 -20   XYZ
    dof rx
    limits (-90.0 20.0)
  end
  begin
     id 11 
     name lowerback
     direction 0.0249066 0.998043 -0.0573585   
     length 2.08485   
     axis 0 0 0   XYZ
    dof rx ry rz
    limits (-20.0 45.0)
           (-30.0 30.0)
           (-30.0 30.0)
  end
  begin
     id 12 
     name upperback
     direction 0.0237884 0.999673 0.00943178   
     length 2.08515   
     axis 0 0 0   XYZ
    dof rx ry rz
    limits (-20.0 45.0)
           (-30.0 30.0)
           (-30.0 30.0)
  end
  begin
     id 13 
     name thorax
     direction 0.0106671 0.999301 0.0358174   
     length 2.09037   
     axis 0 0 0   XYZ
    dof rx ry rz
    limits (-20.0 45.0)
           (-30.0 30.0)
           (-30.0 30.0)
  end
  begin
     id 14 
     name lowerneck
     direction -0.0580016 0.987052 0.149546   
     length 1.84454   
     axis 0 0 0   XYZ
    dof rx ry rz
    limits (-20.0 45.0)
           (-30.0 30.0)
           (-30.0 30.0)
  end
  begin
     id 15 
     name upperneck
     direction 0.079456 0.981963 -0.171567   
     length 1.88141   
     axis 0 0 0   XYZ
    dof rx ry rz
    limits (-20.0 45.0)
           (-30.0 30.0)
           (-30.0 30.0)
  end
  begin
     id 16
     name head
     direction 0.0262167 0.9967 -0.0768276  
     length 1.89541  
     axis 0 0 0   XYZ
    dof rx ry rz
    limits (-20.0 45.0)
           (-30.0 30.0)
           (-30.0 30.0)
  end
  begin
     id 17 
     name lclavicle
     direction 0.946135 0.322134 -0.0325326  
     length 3.949  
     axis 0 0 0   XYZ
    dof ry rz
    limits (-20.0 10.0)
           (0.0 20.0)
  end
  begin
     id 18 
     name lhumerus
     direction 1 -4.48964e-011 1.94005e-028   
     length 5.10995   
     axis 180 -30 -90   XYZ
    dof rx ry rz
    limits (-60.0 90.0)
           (-90.0 90.0)
           (-90.0 90.0)
  end
  begin
     id 19
     name lradius
     direction 1 -4.48976e-011 2.87852e-027   
     length 3.21207   
     axis 180 -30 -90   XYZ
    dof rx
    limits (-10.0 170.0)
  end
  begin
     id 20
     name lwrist
     direction 1 -4.48963e-011 1.9975e-027   
     length 1.60604   
     axis 2.96054e-016 90 90   XYZ
    dof ry
    limits (-180.0 0.0)
 end
  begin
     id 21 
     name lhand
     direction 1 -4.48919e-011 4.00227e-027   
     length 0.63349   
     axis -2.5488e-015 90 90   XYZ
    dof rx rz
    limits (-90.0 90.0)
           (-45.0 45.0)
  end
  begin
     id 22 
     name lfingers
     direction 1 -4.49037e-011 7.9652e-027   
     length 0.510736   
     axis -5.0975e-015 90 90   XYZ
    dof rx
    limits (0.0 90.0)
  end
  begin
     id 23
     name lthumb
     direction 0.707107 -6.34922e-011 0.707107   
     length 0.733318   
     axis -90 45 -4.48553e-014   XYZ
    dof rx rz
    limits (-45.0 45.0)
           (-45.0 45.0)
  end
  begin
     id 24 
     name rclavicle
     direction -0.940085 0.328911 -0.0897654   
     length 3.93848  
     axis 0 0 0   XYZ 
    dof ry rz
    limits (-10.0 20.0)
           (-20.0 0.0)
  end
  begin
     id 25 
     name rhumerus
     direction -1 -4.48958e-011 3.02044e-027  
     length 5.25109   
     axis 180 30 90   XYZ
    dof rx ry rz
    limits (-90.0 60.0)
           (-90.0 90.0)
           (-90.0 90.0)
  end
  begin
     id 26 
     name rradius
     direction -1 -4.4897e-011 9.78352e-028   
     length 3.28364   
     axis 180 30 90   XYZ
    dof rx
    limits (-10.0 170.0)
  end
  begin
     id 27 
     name rwrist
     direction -1 -4.48943e-011 1.99918e-027   
     length 1.64182   
     axis 2.96054e-016 -90 -90   XYZ
    dof ry
    limits (-180.0 0.0)
  end
  begin
     id 28
     name rhand
     direction -1 -4.49024e-011 3.98478e-027   
     length 0.599745   
     axis -2.5488e-015 -90 -90   XYZ
    dof rx rz
    limits (-90.0 90.0)
           (-45.0 45.0)
  end
  begin
     id 29
     name rfingers
     direction -1 -4.48914e-011 8.00621e-027   
     length 0.48353   
     axis -5.0975e-015 -90 -90   XYZ
    dof rx
    limits (0.0 90.0)
  end
  begin
     id 30
     name rthumb
     direction -0.707107 -6.34992e-011 0.707107   
     length 0.694255   
     axis -90 -45 4.48553e-014   XYZ
    dof rx rz
    limits (-45.0 45.0)
           (-45.0 45.0)
  end
:hierarchy
  begin
    root lhipjoint rhipjoint lowerback
    lhipjoint lfemur
    lfemur ltibia
    ltibia lfoot
    lfoot ltoes
    rhipjoint rfemur
    rfemur rtibia
    rtibia rfoot
    rfoot rtoes
    lowerback upperback
    upperback thorax
    thorax lowerneck lclavicle rclavicle
    lowerneck upperneck
    upperneck head
    lclavicle lhumerus
    lhumerus lradius
    lradius lwrist
    lwrist lhand lthumb
    lhand lfingers
    rclavicle rhumerus
    rhumerus rradius
    rradius rwrist
    rwrist rhand rthumb
    rhand rfingers
  end

#!OML:ASF E:\CV Data\Top Level 1\Subject 1\Session 1\player.ASF
:FULLY-SPECIFIED
:DEGREES
468
root 4.94456 15.1659 -10.561 37.4178 -0.662441 -9.13911
lowerback 23.2112 1.30928 3.60386
upperback 0.0160718 3.1336 3.41184
thorax -13.0703 1.33033 0.742636
lowerneck -24.3233 -7.26394 -10.6571
upperneck -5.27422 -7.43574 17.5303
head 3.40975 -2.77162 6.56543
rclavicle 5.81445e-015 -1.37658e-014
rhumerus -40.708 5.5821 -89.3989
rradius 47.6974
rwrist -30.8007
rhand -26.8129 4.5235
rfingers 7.12502
rthumb -0.239351 -25.4561
lclavicle 5.81445e-015 -1.37658e-014
lhumerus -38.935 -2.94377 90.8542
lradius 43.7179
lwrist 14.9371
lhand -20.7315 10.1227
lfingers 7.12502
lthumb 5.63358 40.0279
rfemur -60.7948 4.69624 24.5227
rtibia 72.0769
rfoot -37.0789 -20.0903
rtoes -22.253
lfemur -61.759 11.0368 -11.7091
ltibia 74.577
lfoot -36.4223 4.32703
ltoes -24.2098
469
root 4.93606 15.2161 -10.3254 36.9058 -0.61878 -9.06889
lowerback 22.4472 1.30677 3.60529
upperback -0.233698 3.10975 3.45669
thorax -12.9319 1.32645 0.815817
lowerneck -24.8738 -7.36502 -10.5561
upperneck -4.92572 -7.59747 17.652
head 3.61965 -2.80856 6.56291
rclavicle 3.47873e-015 -6.95249e-014
rhumerus -42.2834 6.12827 -89.3755
rradius 49.0092
rwrist -31.3818
rhand -26.8696 3.65956
rfingers 7.12502
rthumb -0.29417 -26.32
lclavicle 3.47873e-015 -6.95249e-014
lhumerus -39.8293 -3.14142 90.9299
lradius 43.7041
lwrist 14.183
lhand -20.4069 9.51906
lfingers 7.12502
lthumb 5.94699 39.4156
rfemur -58.6002 4.67869 24.5567
rtibia 70.9194
rfoot -37.282 -20.2909
rtoes -22.5215
lfemur -59.6533 10.725 -11.4431
ltibia 73.6172
lfoot -36.2894 4.32811
ltoes -25.0204
470
root 4.92831 15.29 -10.0699 36.1574 -0.541238 -8.95631
lowerback 21.8103 1.27635 3.60888
upperback -0.449019 3.05507 3.50673
thorax -12.8231 1.3075 0.90063
lowerneck -25.4151 -7.47734 -10.4697
upperneck -4.4614 -7.78682 17.7576
head 3.86721 -2.85516 6.55329
rclavicle -2.3059e-014 -3.35946e-014
rhumerus -43.9977 6.6856 -89.3422
rradius 50.5166
rwrist -32.0919
rhand -26.7631 2.91772
rfingers 7.12502
rthumb -0.191295 -27.0619
lclavicle -2.3059e-014 -3.35946e-014
lhumerus -40.8608 -3.27825 90.9995
lradius 43.8543
lwrist 13.2184
lhand -20.0652 8.93357
lfingers 7.12502
lthumb 6.27689 38.8206
rfemur -55.9339 4.53723 24.6016
rtibia 69.4473
rfoot -37.283 -20.301
rtoes -22.8197
lfemur -57.0729 10.3331 -11.154
ltibia 72.3059
lfoot -35.9859 4.06933
ltoes -25.7791
471
root 4.92221 15.3864 -9.79296 35.1352 -0.470972 -8.833
lowerback 21.3233 1.235 3.61816
upperback -0.614797 2.99233 3.55607
thorax -12.7402 1.28338 0.980293
lowerneck -25.9156 -7.60093 -10.3987
upperneck -3.87753 -8.0065 17.8423
head 4.14977 -2.91426 6.53473
rclavicle 7.35503e-015 -1.73937e-014
rhumerus -45.8224 7.21628 -89.2978
rradius 52.1256
rwrist -32.8113
rhand -26.4925 2.37699
rfingers 7.12502
rthumb 0.0700872 -27.6027
lclavicle 7.35503e-015 -1.73937e-014
lhumerus -42.0198 -3.35911 91.0561
lradius 44.1399
lwrist 12.1238
lhand -19.7183 8.45559
lfingers 7.12502
lthumb 6.61174 38.3324
rfemur -52.7559 4.30976 24.645
rtibia 67.6558
rfoot -37.0457 -20.0809
rtoes -23.1843
lfemur -53.9561 9.89874 -10.8397
ltibia 70.6305
lfoot -35.5019 3.57861
ltoes -26.5647
472
root 4.91771 15.5029 -9.49419 33.8576 -0.40206 -8.70791
lowerback 20.9402 1.18094 3.64569
upperback -0.728979 2.91956 3.60561
thorax -12.6549 1.25301 1.0502
lowerneck -26.3185 -7.73566 -10.355
upperneck -3.19789 -8.25477 17.91
head 4.45335 -2.98826 6.51095
rclavicle 1.27222e-014 -1.54058e-014
rhumerus -47.7342 7.71214 -89.2536
rradius 53.7566
rwrist -33.388
rhand -26.1352 2.08739
rfingers 7.12502
rthumb 0.415172 -27.8919
lclavicle 1.27222e-014 -1.54058e-014
lhumerus -43.2771 -3.38329 91.0991
lradius 44.5076
lwrist 10.996
lhand -19.3779 8.15311
lfingers 7.12502
lthumb 6.94041 38.0193
rfemur -49.0981 3.99875 24.6823
rtibia 65.5512
rfoot -36.5465 -19.5971
rtoes -23.6056
lfemur -50.3354 9.4245 -10.5006
ltibia 68.5886
lfoot -34.8166 2.82303
ltoes -27.3547
473
root 4.91445 15.636 -9.17435 32.3868 -0.339189 -8.59291
lowerback 20.58 1.12173 3.69412
upperback -0.808169 2.84338 3.65421
thorax -12.5405 1.21982 1.10689
lowerneck -26.5731 -7.87564 -10.3355
upperneck -2.44337 -8.52458 17.9465
head 4.76269 -3.07798 6.47772
rclavicle -8.64713e-015 -2.92213e-014
rhumerus -49.7221 8.16967 -89.2254
rradius 55.3344
rwrist -33.678
rhand -25.7505 2.06196
rfingers 7.12502
rthumb 0.786721 -27.9163
lclavicle -8.64713e-015 -2.92213e-014
lhumerus -44.6276 -3.36187 91.125
lradius 44.9295
lwrist 9.92872
lhand -19.0537 7.97993
lfingers 7.12502
lthumb 7.25329 37.8356
rfemur -45.059 3.62249 24.7073
rtibia 63.1579
rfoot -35.7428 -18.8412
rtoes -24.09
lfemur -46.2962 8.92685 -10.1446
ltibia 66.194
lfoot -33.905 1.80246
ltoes -28.1355
474
root 4.91307 15.7821 -8.83534 30.7984 -0.310301 -8.51072
lowerback 20.1556 1.0711 3.76744
upperback -0.868856 2.77816 3.70179
thorax -12.3661 1.19084 1.14494
lowerneck -26.6585 -8.01998 -10.3472
upperneck -1.59767 -8.81523 17.9451
head 5.07975 -3.18438 6.43403
rclavicle 1.85864e-014 1.03368e-014
rhumerus -51.7656 8.60612 -89.2276
rradius 56.8077
rwrist -33.5739
rhand -25.3936 2.24521
rfingers 7.12502
rthumb 1.1314 -27.7315
lclavicle 1.85864e-014 1.03368e-014
lhumerus -46.0548 -3.31007 91.1435
lradius 45.3727
lwrist 9.03708
lhand -18.7837 7.84174
lfingers 7.12502
lthumb 7.51392 37.6883
rfemur -40.7605 3.22135 24.7089
rtibia 60.5176
rfoot -34.5891 -17.7921
rtoes -24.6317
lfemur -41.9432 8.43568 -9.78214
ltibia 63.4675
lfoot -32.7276 0.522971
ltoes -28.8925
475
root 4.91308 15.9382 -8.47884 29.2086 -0.304007 -8.4644
lowerback 19.5343 1.03318 3.87336
upperback -0.934162 2.72381 3.75084
thorax -12.0817 1.16668 1.16477
lowerneck -26.5602 -8.16056 -10.3949
upperneck -0.668118 -9.11378 17.9051
head 5.39848 -3.30275 6.38271
rclavicle 1.41137e-014 2.82274e-014
rhumerus -53.8381 9.05463 -89.2906
rradius 58.1416
rwrist -33.0621
rhand -25.167 2.56598
rfingers 7.12502
rthumb 1.35029 -27.4095
lclavicle 1.41137e-014 2.82274e-014
lhumerus -47.5374 -3.2524 91.163
lradius 45.8363
lwrist 8.40505
lhand -18.5567 7.78259
lfingers 7.12502
lthumb 7.73301 37.6212
rfemur -36.3942 2.81296 24.6869
rtibia 57.7297
rfoot -33.0441 -16.4579
rtoes -25.2244
lfemur -37.4436 7.94578 -9.41546
ltibia 60.47
lfoot -31.2405 -1.00395
ltoes -29.628
476
root 4.91541 16.1038 -8.10597 27.6658 -0.322549 -8.44961
lowerback 18.6787 1.00807 4.02307
upperback -1.0161 2.67917 3.7977
thorax -11.6786 1.1463 1.15695
lowerneck -26.2745 -8.28867 -10.4853
upperneck 0.357186 -9.40803 17.8276
head 5.72036 -3.42764 6.32761
rclavicle 2.46493e-014 2.66371e-014
rhumerus -55.9125 9.53716 -89.4273
rradius 59.3154
rwrist -32.183
rhand -25.0647 2.86508
rfingers 7.12502
rthumb 1.44905 -27.1097
lclavicle 2.46493e-014 2.66371e-014
lhumerus -49.0528 -3.21124 91.1961
lradius 46.3207
lwrist 8.12473
lhand -18.3813 7.75345
lfingers 7.12502
lthumb 7.90233 37.5858
rfemur -32.0613 2.41884 24.6262
rtibia 54.8486
rfoot -31.0316 -14.8335
rtoes -25.8258
lfemur -32.8764 7.41302 -9.05312
ltibia 57.208
lfoot -29.3267 -2.80133
ltoes -30.2574
